<svg width="30" height="30" viewBox="0 0 14 18" fill="none" xmlns="http://www.w3.org/2000/svg">
<path fill-rule="evenodd" clip-rule="evenodd" d="M3 7V4C3 1.79086 4.79086 0 7 0C9.20914 0 11 1.79086 11 4V7H12C13.1046 7 14 7.89543 14 9V16C14 17.1046 13.1046 18 12 18H2C0.895431 18 0 17.1046 0 16V9C0 7.89543 0.89543 7 2 7H3ZM5 4C5 2.89543 5.89543 2 7 2C8.10457 2 9 2.89543 9 4V7H5V4ZM7 10C7.55228 10 8 10.4477 8 11V14C8 14.5523 7.55228 15 7 15C6.44772 15 6 14.5523 6 14V11C6 10.4477 6.44772 10 7 10Z" fill="#383838"/>
</svg>
