<svg width="30px" height="30px" viewBox="0 0 16 16" fill="#eaa023" xmlns="http://www.w3.org/2000/svg">
<path d="M3.97825 0C3.60535 0 3.23697 0.0816907 2.89899 0.239335C2.57505 0.390431 2.28656 0.60779 2.05203 0.877201C0.233114 2.69909 -0.300992 4.75143 0.153044 6.81391C0.592196 8.80878 1.93051 10.7068 3.60946 12.3859C5.28843 14.065 7.18556 15.4036 9.17977 15.845C11.241 16.3013 13.2939 15.7724 15.1194 13.9597C15.3899 13.7249 15.6082 13.4357 15.7599 13.1108C15.918 12.7721 16 12.4028 16 12.0289C16 11.655 15.918 11.2857 15.7599 10.947C15.6083 10.6223 15.3903 10.3334 15.1201 10.0987L13.9103 8.88811C13.406 8.38406 12.7224 8.10093 12.0096 8.10093C11.2968 8.10093 10.6128 8.38443 10.1085 8.88848L9.49069 9.50666C9.33948 9.65792 9.13442 9.7429 8.92061 9.7429C8.70678 9.7429 8.5017 9.65791 8.3505 9.50663L6.49714 7.65212C6.34597 7.50082 6.26105 7.29563 6.26105 7.08169C6.26105 6.86772 6.34598 6.66252 6.49718 6.51122L7.11531 5.8927C7.61905 5.38809 7.902 4.70402 7.902 3.99079C7.902 3.27756 7.61868 2.59312 7.11494 2.08851L5.90499 0.877809C5.67037 0.608117 5.38169 0.390544 5.0575 0.239335C4.71952 0.0816906 4.35114 0 3.97825 0Z" />
</svg>
